<mxfile host="app.diagrams.net" agent="Mozilla/5.0 (Windows NT 10.0; Win64; x64) AppleWebKit/537.36 (KHTML, like Gecko) Chrome/128.0.0.0 YaBrowser/24.10.0.0 Safari/537.36" version="25.0.3">
  <diagram name="Страница — 1" id="91J1ZHkb6w5juZU7Ilqj">
    <mxGraphModel dx="880" dy="479" grid="1" gridSize="10" guides="1" tooltips="1" connect="1" arrows="1" fold="1" page="1" pageScale="1" pageWidth="827" pageHeight="1169" math="0" shadow="0">
      <root>
        <mxCell id="0" />
        <mxCell id="1" parent="0" />
        <mxCell id="ITiTKqKoVGNr93wyGDbL-1" value="Пользовательский интерфейс" style="html=1;dropTarget=0;whiteSpace=wrap;align=left;" vertex="1" parent="1">
          <mxGeometry x="40" y="120" width="140" height="60" as="geometry" />
        </mxCell>
        <mxCell id="ITiTKqKoVGNr93wyGDbL-2" value="" style="shape=module;jettyWidth=8;jettyHeight=4;" vertex="1" parent="ITiTKqKoVGNr93wyGDbL-1">
          <mxGeometry x="1" width="20" height="20" relative="1" as="geometry">
            <mxPoint x="-30" y="30" as="offset" />
          </mxGeometry>
        </mxCell>
        <mxCell id="ITiTKqKoVGNr93wyGDbL-3" value="Загрузка&amp;nbsp;&lt;div&gt;результатов&lt;/div&gt;" style="html=1;dropTarget=0;whiteSpace=wrap;align=left;" vertex="1" parent="1">
          <mxGeometry x="40" y="210" width="140" height="60" as="geometry" />
        </mxCell>
        <mxCell id="ITiTKqKoVGNr93wyGDbL-4" value="" style="shape=module;jettyWidth=8;jettyHeight=4;" vertex="1" parent="ITiTKqKoVGNr93wyGDbL-3">
          <mxGeometry x="1" width="20" height="20" relative="1" as="geometry">
            <mxPoint x="-30" y="30" as="offset" />
          </mxGeometry>
        </mxCell>
        <mxCell id="ITiTKqKoVGNr93wyGDbL-5" value="" style="endArrow=none;html=1;rounded=0;exitX=0.5;exitY=0;exitDx=0;exitDy=0;" edge="1" parent="1" source="ITiTKqKoVGNr93wyGDbL-3">
          <mxGeometry width="50" height="50" relative="1" as="geometry">
            <mxPoint x="109.5" y="210" as="sourcePoint" />
            <mxPoint x="110" y="180" as="targetPoint" />
          </mxGeometry>
        </mxCell>
        <mxCell id="ITiTKqKoVGNr93wyGDbL-6" value="Обработчик&amp;nbsp;&lt;div&gt;изображения&lt;/div&gt;" style="html=1;dropTarget=0;whiteSpace=wrap;align=left;" vertex="1" parent="1">
          <mxGeometry x="230" y="120" width="140" height="60" as="geometry" />
        </mxCell>
        <mxCell id="ITiTKqKoVGNr93wyGDbL-7" value="" style="shape=module;jettyWidth=8;jettyHeight=4;" vertex="1" parent="ITiTKqKoVGNr93wyGDbL-6">
          <mxGeometry x="1" width="20" height="20" relative="1" as="geometry">
            <mxPoint x="-30" y="30" as="offset" />
          </mxGeometry>
        </mxCell>
        <mxCell id="ITiTKqKoVGNr93wyGDbL-9" value="" style="endArrow=classic;html=1;rounded=0;" edge="1" parent="1">
          <mxGeometry width="50" height="50" relative="1" as="geometry">
            <mxPoint x="180" y="149.5" as="sourcePoint" />
            <mxPoint x="230" y="150" as="targetPoint" />
          </mxGeometry>
        </mxCell>
        <mxCell id="ITiTKqKoVGNr93wyGDbL-10" value="" style="endArrow=none;html=1;rounded=0;exitX=0.5;exitY=0;exitDx=0;exitDy=0;" edge="1" parent="1" source="ITiTKqKoVGNr93wyGDbL-11">
          <mxGeometry width="50" height="50" relative="1" as="geometry">
            <mxPoint x="299.5" y="210" as="sourcePoint" />
            <mxPoint x="300" y="180" as="targetPoint" />
          </mxGeometry>
        </mxCell>
        <mxCell id="ITiTKqKoVGNr93wyGDbL-11" value="Поворот&lt;div&gt;изображения&lt;/div&gt;" style="html=1;dropTarget=0;whiteSpace=wrap;align=left;" vertex="1" parent="1">
          <mxGeometry x="230" y="210" width="140" height="60" as="geometry" />
        </mxCell>
        <mxCell id="ITiTKqKoVGNr93wyGDbL-12" value="" style="shape=module;jettyWidth=8;jettyHeight=4;" vertex="1" parent="ITiTKqKoVGNr93wyGDbL-11">
          <mxGeometry x="1" width="20" height="20" relative="1" as="geometry">
            <mxPoint x="-30" y="30" as="offset" />
          </mxGeometry>
        </mxCell>
        <mxCell id="ITiTKqKoVGNr93wyGDbL-15" value="Файловая&lt;div&gt;система&lt;/div&gt;" style="html=1;dropTarget=0;whiteSpace=wrap;align=left;" vertex="1" parent="1">
          <mxGeometry x="430" y="120" width="140" height="60" as="geometry" />
        </mxCell>
        <mxCell id="ITiTKqKoVGNr93wyGDbL-16" value="" style="shape=module;jettyWidth=8;jettyHeight=4;" vertex="1" parent="ITiTKqKoVGNr93wyGDbL-15">
          <mxGeometry x="1" width="20" height="20" relative="1" as="geometry">
            <mxPoint x="-30" y="30" as="offset" />
          </mxGeometry>
        </mxCell>
        <mxCell id="ITiTKqKoVGNr93wyGDbL-17" value="" style="endArrow=classic;startArrow=classic;html=1;rounded=0;entryX=0;entryY=0.5;entryDx=0;entryDy=0;" edge="1" parent="1" target="ITiTKqKoVGNr93wyGDbL-15">
          <mxGeometry width="50" height="50" relative="1" as="geometry">
            <mxPoint x="370" y="149.5" as="sourcePoint" />
            <mxPoint x="410" y="149.5" as="targetPoint" />
          </mxGeometry>
        </mxCell>
      </root>
    </mxGraphModel>
  </diagram>
</mxfile>
